<?xml version="1.0" standalone="no"?><!DOCTYPE svg PUBLIC "-//W3C//DTD SVG 1.1//EN" "http://www.w3.org/Graphics/SVG/1.1/DTD/svg11.dtd"><svg t="1783935274052" class="icon" viewBox="0 0 1024 1024" version="1.1" xmlns="http://www.w3.org/2000/svg" p-id="15229" xmlns:xlink="http://www.w3.org/1999/xlink" width="200" height="200"><path d="M63.520197 64.485687 63.520197 847.402933l727.208457 0L790.728654 64.485687 63.520197 64.485687zM735.893768 792.514835 117.451504 792.514835 117.451504 118.357642 735.893768 118.357642 735.893768 792.514835z" fill="#272636" p-id="15230"></path><path d="M192.604134 400.401296l458.300984 0 0 55.113225-458.300984 0 0-55.113225Z" fill="#272636" p-id="15231"></path><path d="M192.604134 512.239454l458.300984 0 0 55.113225-458.300984 0 0-55.113225Z" fill="#272636" p-id="15232"></path><path d="M192.604134 624.13287l458.300984 0 0 55.112202-458.300984 0 0-55.112202Z" fill="#272636" p-id="15233"></path><path d="M192.604134 288.11493l229.147934 0 0 55.113225-229.147934 0 0-55.113225Z" fill="#272636" p-id="15234"></path><path d="M958.486402 959.245184 371.311259 959.245184 371.311259 905.370159 904.617517 905.370159 904.617517 230.196823 848.166831 230.196823 848.166831 176.322821 958.486402 176.322821Z" fill="#272636" p-id="15235"></path></svg>